<svg width="620" height="560" viewBox="0 0 620 560" fill="none" xmlns="http://www.w3.org/2000/svg">
  <defs>
    <linearGradient id="g1" x1="70" y1="40" x2="530" y2="520" gradientUnits="userSpaceOnUse"><stop stop-color="#EAF8DD"/><stop offset="1" stop-color="#D9F2CB"/></linearGradient>
    <linearGradient id="shirt" x1="286" y1="246" x2="369" y2="526" gradientUnits="userSpaceOnUse"><stop stop-color="#5AA832"/><stop offset="1" stop-color="#267B28"/></linearGradient>
    <linearGradient id="orange" x1="418" y1="267" x2="503" y2="504" gradientUnits="userSpaceOnUse"><stop stop-color="#FF9B23"/><stop offset="1" stop-color="#F97316"/></linearGradient>
    <filter id="shadow" x="100" y="60" width="420" height="500" filterUnits="userSpaceOnUse" color-interpolation-filters="sRGB"><feDropShadow dx="0" dy="24" stdDeviation="25" flood-color="#166534" flood-opacity="0.18"/></filter>
  </defs>
  <path d="M445 500c-77 42-253 39-331-38C35 385 38 242 104 148 174 50 326 22 439 84c113 63 153 207 115 310-18 48-52 81-109 106Z" fill="url(#g1)"/>
  <path d="M92 340c60-82 30-144 93-198 64-55 172-48 225-5 74 59 49 149 119 193" stroke="#B7DFA4" stroke-width="2" stroke-dasharray="8 10" opacity=".55"/>
  <path d="M80 452h470" stroke="#B7DFA4" stroke-width="2" opacity=".45"/>
  <g opacity=".3" stroke="#7AB56A" stroke-width="3"><path d="M118 426V303l45 35v88"/><path d="M101 426h80"/><path d="M428 421V273l34-32 35 32v148"/><path d="M410 421h104"/><path d="M439 282h48M439 318h48M439 354h48"/></g>
  <g filter="url(#shadow)">
    <path d="M401 162c0 55-38 96-88 96s-88-41-88-96 39-99 88-99 88 44 88 99Z" fill="#67391E"/>
    <path d="M395 171c0 66-43 119-96 119-54 0-98-53-98-119 0-66 44-119 98-119 53 0 96 53 96 119Z" fill="#5A2F18"/>
    <path d="M367 172c0 45-29 82-65 82s-65-37-65-82 29-82 65-82 65 37 65 82Z" fill="#F4B891"/>
    <path d="M232 157c24-6 45-24 57-56 19 32 46 52 81 59-3-55-34-100-80-102-39-2-67 39-58 99Z" fill="#462713"/>
    <path d="M265 193c22 20 52 20 74 0" stroke="#9B4B36" stroke-width="5" stroke-linecap="round"/>
    <path d="M265 158c8-5 17-5 25 0M321 158c8-5 17-5 25 0" stroke="#352012" stroke-width="5" stroke-linecap="round"/>
    <path d="M276 251h56v48h-56z" fill="#EFA77F"/>
    <path d="M179 512c6-123 39-215 106-248 14 16 39 17 61 0 63 28 93 120 102 248H179Z" fill="url(#shirt)"/>
    <path d="M208 318c-51 21-89 63-110 127l54 24c20-41 46-72 78-91l-22-60Z" fill="#59A632"/>
    <path d="M390 326c40 16 71 48 91 96l-51 25c-19-35-41-58-66-72l26-49Z" fill="#347F2B"/>
    <path d="M143 452c-21 0-38-17-38-38v-11h75v49h-37Z" fill="#F4B891"/>
    <path d="M455 418c18 8 27 29 19 47l-5 10-67-31 20-44 33 18Z" fill="#F4B891"/>
    <path d="M420 271c29 78 37 157 24 241h28c22-86 16-168-22-247l-30 6Z" fill="url(#orange)"/>
    <rect x="379" y="299" width="78" height="152" rx="10" transform="rotate(-6 379 299)" fill="#F5F7FA" stroke="#D1D5DB" stroke-width="5"/>
    <rect x="397" y="312" width="51" height="117" rx="4" transform="rotate(-6 397 312)" fill="#FFB34D"/>
    <path d="M503 119l44-17-13 49-12-21-19-11Z" fill="#27882A"/>
  </g>
</svg>
